
<svg width="2115" height="229" viewBox="0 0 2115 229" fill="none" xmlns="http://www.w3.org/2000/svg">
<g filter="url(#filter0_d_1692_1900)">
<path d="M2.048 103.184L74.048 9.008C76.544 5.93599 79.712 4.39999 83.552 4.39999H120.128C121.28 4.39999 122.048 4.87999 122.432 5.83998C123.008 6.79998 123.008 7.75998 122.432 8.71998L48.128 105.2L122.432 201.968C123.008 202.928 123.008 203.888 122.432 204.848C122.048 205.808 121.28 206.288 120.128 206.288H83.552C79.52 206.288 76.352 204.656 74.048 201.392L2.048 107.504C0.704 105.968 0.704 104.528 2.048 103.184ZM187.099 104.336C187.099 89.552 189.787 75.824 195.163 63.152C200.731 50.48 208.123 39.44 217.339 30.032C226.747 20.624 237.787 13.328 250.459 8.14399C263.131 2.76799 276.763 0.175989 291.355 0.367987C306.907 0.559984 321.211 3.72798 334.267 9.87198C347.515 16.016 358.939 24.464 368.539 35.216C369.115 35.984 369.307 36.848 369.115 37.808C369.115 38.768 368.731 39.536 367.963 40.112L345.211 59.408C344.443 59.984 343.579 60.272 342.619 60.272C341.659 60.08 340.891 59.6 340.315 58.832C333.979 51.536 326.491 45.776 317.851 41.552C309.211 37.136 299.899 35.024 289.915 35.216C280.891 35.408 272.347 37.424 264.283 41.264C256.219 44.912 249.211 50 243.259 56.528C237.307 62.864 232.603 70.256 229.147 78.704C225.691 87.152 223.963 96.176 223.963 105.776C223.963 115.376 225.787 124.4 229.435 132.848C233.083 141.296 237.979 148.688 244.123 155.024C250.267 161.36 257.371 166.352 265.435 170C273.499 173.456 282.139 175.184 291.355 175.184C300.955 174.992 309.979 172.784 318.427 168.56C326.875 164.336 334.171 158.576 340.315 151.28C340.891 150.512 341.659 150.128 342.619 150.128C343.579 149.936 344.443 150.224 345.211 150.992L367.963 170.288C368.731 170.864 369.115 171.632 369.115 172.592C369.307 173.552 369.115 174.416 368.539 175.184C358.747 186.128 347.131 194.768 333.691 201.104C320.251 207.248 305.563 210.224 289.627 210.032C275.227 210.032 261.691 207.344 249.019 201.968C236.539 196.4 225.691 188.912 216.475 179.504C207.259 169.904 200.059 158.672 194.875 145.808C189.691 132.944 187.099 119.12 187.099 104.336ZM401.6 202.544V8.14399C401.6 7.18399 401.888 6.31999 402.464 5.55199C403.232 4.78399 404.096 4.39999 405.056 4.39999H546.752C549.056 4.39999 550.208 5.64799 550.208 8.14399V202.544C550.208 205.04 549.056 206.288 546.752 206.288H405.056C404.096 206.288 403.232 205.904 402.464 205.136C401.888 204.368 401.6 203.504 401.6 202.544ZM438.464 40.976V169.424H513.344V40.976H438.464ZM591.725 7.85599C591.725 6.89599 592.013 6.12799 592.589 5.55199C593.357 4.78399 594.221 4.39999 595.181 4.39999H659.405C673.229 4.39999 686.189 6.99199 698.285 12.176C710.381 17.36 720.941 24.464 729.965 33.488C738.989 42.32 746.189 52.784 751.565 64.88C757.133 76.784 760.013 89.552 760.205 103.184C760.589 117.392 757.997 130.736 752.429 143.216C747.053 155.696 739.661 166.64 730.253 176.048C720.845 185.264 709.805 192.56 697.133 197.936C684.653 203.312 671.309 206 657.101 206H595.181C594.221 206 593.357 205.712 592.589 205.136C592.013 204.368 591.725 203.504 591.725 202.544V7.85599ZM628.589 169.424H659.405C668.237 169.424 676.493 167.792 684.173 164.528C692.045 161.072 698.861 156.464 704.621 150.704C710.573 144.752 715.181 137.936 718.445 130.256C721.901 122.384 723.629 114.032 723.629 105.2C723.629 96.368 721.901 88.112 718.445 80.432C715.181 72.56 710.573 65.744 704.621 59.984C698.861 54.032 692.045 49.424 684.173 46.16C676.493 42.704 668.237 40.976 659.405 40.976H628.589V169.424ZM793.663 7.85599C793.663 6.89599 793.951 6.12799 794.527 5.55199C795.295 4.78399 796.159 4.39999 797.119 4.39999H921.535C923.839 4.39999 924.991 5.55199 924.991 7.85599V37.52C924.991 39.824 923.839 40.976 921.535 40.976H830.527V87.056H902.527C904.831 87.056 905.983 88.208 905.983 90.512V119.888C905.983 122.384 904.831 123.632 902.527 123.632H830.527V169.424H930.463C931.615 169.424 932.383 169.904 932.767 170.864C933.343 171.824 933.247 172.688 932.479 173.456L911.167 201.392C908.671 204.464 905.503 206 901.663 206H797.119C796.159 206 795.295 205.712 794.527 205.136C793.951 204.368 793.663 203.504 793.663 202.544V7.85599ZM947.317 104.336C947.317 89.552 950.005 75.824 955.381 63.152C960.949 50.48 968.341 39.44 977.557 30.032C986.965 20.624 998.005 13.328 1010.68 8.14399C1023.35 2.76799 1036.98 0.175989 1051.57 0.367987C1067.13 0.559984 1081.43 3.72798 1094.49 9.87198C1107.73 16.016 1119.16 24.464 1128.76 35.216C1129.33 35.984 1129.53 36.848 1129.33 37.808C1129.33 38.768 1128.95 39.536 1128.18 40.112L1105.43 59.408C1104.66 59.984 1103.8 60.272 1102.84 60.272C1101.88 60.08 1101.11 59.6 1100.53 58.832C1094.2 51.536 1086.71 45.776 1078.07 41.552C1069.43 37.136 1060.12 35.024 1050.13 35.216C1041.11 35.408 1032.57 37.424 1024.5 41.264C1016.44 44.912 1009.43 50 1003.48 56.528C997.525 62.864 992.821 70.256 989.365 78.704C985.909 87.152 984.181 96.176 984.181 105.776C984.181 115.376 986.005 124.4 989.653 132.848C993.301 141.296 998.197 148.688 1004.34 155.024C1010.49 161.36 1017.59 166.352 1025.65 170C1033.72 173.456 1042.36 175.184 1051.57 175.184C1061.17 174.992 1070.2 172.784 1078.65 168.56C1087.09 164.336 1094.39 158.576 1100.53 151.28C1101.11 150.512 1101.88 150.128 1102.84 150.128C1103.8 149.936 1104.66 150.224 1105.43 150.992L1128.18 170.288C1128.95 170.864 1129.33 171.632 1129.33 172.592C1129.53 173.552 1129.33 174.416 1128.76 175.184C1118.97 186.128 1107.35 194.768 1093.91 201.104C1080.47 207.248 1065.78 210.224 1049.85 210.032C1035.45 210.032 1021.91 207.344 1009.24 201.968C996.757 196.4 985.909 188.912 976.693 179.504C967.477 169.904 960.277 158.672 955.093 145.808C949.909 132.944 947.317 119.12 947.317 104.336ZM1143.39 201.968L1291.42 9.008C1293.91 5.93599 1297.08 4.39999 1300.92 4.39999H1328.28C1330.59 4.39999 1331.74 5.55199 1331.74 7.85599V202.544C1331.74 204.848 1330.59 206 1328.28 206H1300.92C1297.08 206 1293.91 204.464 1291.42 201.392L1241.59 136.304L1191.48 201.392C1188.99 204.464 1185.82 206 1181.98 206H1145.4C1144.44 206 1143.67 205.616 1143.1 204.848C1142.52 203.888 1142.62 202.928 1143.39 201.968ZM1265.5 105.2L1295.16 143.792V66.608L1265.5 105.2ZM1363.24 7.27998C1363.24 6.31998 1363.53 5.55199 1364.1 4.976C1364.87 4.20799 1365.73 3.82399 1366.69 3.82399H1491.69C1495.53 3.82399 1498.69 5.35999 1501.19 8.43199L1522.5 36.368C1523.27 37.328 1523.37 38.288 1522.79 39.248C1522.41 40.016 1521.64 40.4 1520.49 40.4H1456.26V201.968C1456.26 204.272 1455.11 205.424 1452.81 205.424H1423.14C1420.84 205.424 1419.69 204.272 1419.69 201.968V40.4H1366.69C1365.73 40.4 1364.87 40.112 1364.1 39.536C1363.53 38.768 1363.24 37.904 1363.24 36.944V7.27998ZM1539.97 63.44C1539.97 54.416 1541.8 46.064 1545.44 38.384C1549.28 30.704 1554.37 24.08 1560.71 18.512C1567.24 12.944 1574.72 8.528 1583.17 5.26399C1591.81 1.99999 1600.93 0.367987 1610.53 0.367987C1625.51 0.367987 1638.47 3.05599 1649.41 8.43199C1660.55 13.616 1668.9 19.664 1674.47 26.576C1675.81 28.304 1675.72 29.84 1674.18 31.184L1654.31 51.92C1653.54 52.688 1652.58 53.072 1651.43 53.072C1650.47 53.072 1649.6 52.592 1648.84 51.632C1647.11 49.712 1644.9 47.792 1642.21 45.872C1639.72 43.952 1636.74 42.224 1633.28 40.688C1630.02 38.96 1626.47 37.616 1622.63 36.656C1618.79 35.696 1614.85 35.216 1610.82 35.216C1606.02 35.216 1601.6 35.984 1597.57 37.52C1593.73 38.864 1590.47 40.688 1587.78 42.992C1585.09 45.296 1582.98 47.984 1581.44 51.056C1579.91 54.128 1579.14 57.392 1579.14 60.848C1579.14 66.416 1580.96 71.216 1584.61 75.248C1588.26 79.28 1593.73 82.064 1601.03 83.6L1629.25 89.072C1638.47 90.8 1646.53 93.584 1653.44 97.424C1660.55 101.072 1666.4 105.488 1671.01 110.672C1675.81 115.856 1679.46 121.712 1681.96 128.24C1684.45 134.576 1685.7 141.296 1685.7 148.4C1685.7 156.08 1684.07 163.664 1680.8 171.152C1677.73 178.64 1673.03 185.36 1666.69 191.312C1660.55 197.264 1652.96 202.064 1643.94 205.712C1634.92 209.168 1624.55 210.896 1612.84 210.896C1604.58 210.896 1596.8 210.032 1589.51 208.304C1582.4 206.576 1575.88 204.368 1569.92 201.68C1564.16 198.8 1559.08 195.728 1554.66 192.464C1550.24 189.008 1546.6 185.648 1543.72 182.384C1542.37 181.04 1542.37 179.504 1543.72 177.776L1561.86 154.448C1562.44 153.488 1563.2 153.008 1564.16 153.008C1565.32 152.816 1566.28 153.104 1567.04 153.872C1569.73 156.368 1572.71 158.96 1575.97 161.648C1579.24 164.144 1582.79 166.448 1586.63 168.56C1590.47 170.672 1594.6 172.4 1599.01 173.744C1603.43 175.088 1608.13 175.76 1613.12 175.76C1623.68 175.76 1631.75 173.456 1637.32 168.848C1642.88 164.24 1645.67 158.288 1645.67 150.992C1645.67 145.232 1643.56 140.24 1639.33 136.016C1635.3 131.6 1629.25 128.624 1621.19 127.088L1592.96 121.328C1576.84 118.064 1563.97 111.44 1554.37 101.456C1544.77 91.472 1539.97 78.8 1539.97 63.44ZM1777.32 201.968L1925.36 9.008C1927.85 5.93599 1931.02 4.39999 1934.86 4.39999H1971.44C1972.59 4.39999 1973.36 4.87999 1973.74 5.83998C1974.32 6.79998 1974.22 7.75998 1973.45 8.71998L1825.42 201.392C1823.12 204.656 1819.95 206.288 1815.92 206.288H1779.34C1778.38 206.288 1777.61 205.808 1777.04 204.848C1776.46 203.888 1776.56 202.928 1777.32 201.968ZM1980.15 4.39999H2016.73C2020.57 4.39999 2023.74 5.93599 2026.23 9.008L2098.52 103.184C2099.67 104.528 2099.67 105.968 2098.52 107.504L2026.23 201.392C2023.93 204.656 2020.76 206.288 2016.73 206.288H1980.15C1979.19 206.288 1978.42 205.808 1977.85 204.848C1977.27 203.888 1977.37 202.928 1978.14 201.968L2052.44 105.2L1978.14 8.71998C1977.37 7.75998 1977.27 6.79998 1977.85 5.83998C1978.42 4.87999 1979.19 4.39999 1980.15 4.39999Z" fill="white"/>
</g>
<defs>
<filter id="filter0_d_1692_1900" x="0.0319824" y="0.0800781" width="2114.22" height="228.816" filterUnits="userSpaceOnUse" color-interpolation-filters="sRGB">
<feFlood flood-opacity="0" result="BackgroundImageFix"/>
<feColorMatrix in="SourceAlpha" type="matrix" values="0 0 0 0 0 0 0 0 0 0 0 0 0 0 0 0 0 0 127 0" result="hardAlpha"/>
<feOffset dx="14" dy="18"/>
<feComposite in2="hardAlpha" operator="out"/>
<feColorMatrix type="matrix" values="0 0 0 0 0.7448 0 0 0 0 0.493767 0 0 0 0 0.995833 0 0 0 1 0"/>
<feBlend mode="normal" in2="BackgroundImageFix" result="effect1_dropShadow_1692_1900"/>
<feBlend mode="normal" in="SourceGraphic" in2="effect1_dropShadow_1692_1900" result="shape"/>
</filter>
</defs>
</svg>
