<?xml version="1.0" standalone="no"?>
<!DOCTYPE svg PUBLIC "-//W3C//DTD SVG 20010904//EN"
 "http://www.w3.org/TR/2001/REC-SVG-20010904/DTD/svg10.dtd">
<svg version="1.0" xmlns="http://www.w3.org/2000/svg"
 width="1500.000000pt" height="1500.000000pt" viewBox="0 0 1500.000000 1500.000000"
 preserveAspectRatio="xMidYMid meet">
<metadata>
Created by potrace 1.14, written by Peter Selinger 2001-2017
</metadata>
<g transform="translate(0.000000,1500.000000) scale(0.100000,-0.100000)"
fill="#000000" stroke="none">
<path d="M10434 13985 c-327 -126 -838 -671 -1499 -1598 -54 -76 -101 -134
-104 -129 -16 25 -294 97 -472 121 -246 34 -668 43 -914 21 -525 -48 -1035
-180 -1440 -374 l-130 -62 -80 69 c-135 117 -413 337 -560 442 -279 199 -589
371 -798 444 -559 194 -908 -16 -1012 -611 -8 -46 -20 -153 -26 -238 -9 -143
-8 -229 7 -449 l6 -84 -105 7 c-89 6 -105 5 -110 -8 -9 -23 6 -28 118 -33
l103 -6 7 -71 c4 -39 18 -140 31 -225 13 -85 23 -156 21 -157 -1 -2 -45 6 -96
17 -75 17 -95 18 -102 8 -4 -7 -5 -17 -2 -21 11 -18 91 -63 157 -87 l69 -26
33 -147 c120 -540 320 -1105 477 -1348 l36 -55 -107 -6 c-256 -16 -601 -73
-716 -120 -102 -41 -122 -100 -48 -138 48 -24 100 -35 307 -67 264 -40 369
-70 345 -99 -17 -20 -137 -62 -293 -100 -176 -44 -215 -60 -224 -93 -11 -43
28 -64 215 -116 93 -26 184 -57 202 -68 30 -18 32 -21 17 -36 -9 -9 -72 -43
-139 -76 -140 -70 -171 -99 -145 -139 20 -31 46 -41 205 -77 172 -38 229 -64
279 -127 89 -113 164 -290 333 -788 197 -582 289 -788 412 -921 57 -62 103
-87 239 -128 l115 -34 55 16 56 16 -148 43 c-81 23 -165 51 -187 62 -74 38
-147 133 -227 296 -80 164 -128 289 -290 765 -159 466 -242 647 -339 744 -50
50 -134 84 -304 121 -160 35 -160 36 -66 80 43 20 103 48 131 62 83 39 112 91
79 139 -22 31 -114 68 -269 110 -75 20 -137 40 -137 45 0 4 42 17 92 29 188
43 319 87 371 123 58 40 53 98 -11 131 -39 20 -167 51 -292 71 -240 38 -294
47 -329 59 l-36 13 31 16 c103 53 571 127 804 127 87 0 130 10 130 30 0 5 -22
34 -49 64 -121 140 -303 584 -436 1065 -34 125 -105 416 -105 434 0 4 8 7 19
7 15 0 23 -19 45 -117 99 -428 252 -870 376 -1088 54 -94 130 -178 153 -170
32 13 26 35 -24 92 -127 145 -294 574 -419 1078 l-48 190 141 8 c158 8 343 34
515 73 272 60 675 190 966 310 71 30 131 52 134 50 9 -10 -163 -188 -252 -262
-173 -143 -344 -231 -498 -256 -84 -13 -104 -24 -87 -44 16 -19 201 -18 338 1
188 28 501 120 579 171 18 12 21 18 12 29 -9 11 -26 7 -95 -21 -123 -50 -301
-101 -427 -124 -177 -32 -187 -28 -72 29 166 81 333 213 470 369 144 165 163
217 62 173 -311 -135 -763 -292 -1038 -360 -409 -101 -729 -123 -925 -66 l-50
15 45 -5 c358 -40 652 8 965 160 226 109 428 257 615 451 108 112 245 285 280
355 18 35 19 40 5 45 -11 4 -35 -15 -76 -60 -168 -183 -472 -346 -805 -431
-74 -19 -140 -35 -146 -35 -6 0 33 22 88 49 216 105 383 268 510 498 22 41 26
55 17 64 -10 10 -34 -9 -111 -83 -162 -156 -355 -271 -588 -351 -93 -33 -313
-87 -345 -87 -8 1 19 16 58 35 159 74 316 211 416 362 26 39 72 122 102 185
57 119 160 412 150 429 -19 29 -36 -1 -80 -138 -84 -265 -186 -451 -324 -596
-153 -160 -370 -267 -597 -293 l-52 -7 -7 119 c-11 166 0 470 20 584 72 403
267 603 563 575 417 -39 988 -426 1800 -1219 179 -175 215 -206 227 -196 8 7
15 17 15 22 0 39 -543 558 -850 812 -555 460 -1024 685 -1327 638 -214 -34
-363 -183 -446 -447 -53 -170 -62 -254 -62 -588 0 -279 -2 -307 -17 -307 -23
0 -32 148 -25 437 7 317 39 481 130 656 324 628 1236 251 2655 -1095 121 -115
156 -136 169 -102 7 19 -68 96 -309 317 -98 89 -178 164 -178 167 0 10 230
111 376 166 344 129 704 210 1108 249 184 17 575 20 746 5 228 -21 516 -78
619 -122 l28 -13 -154 -225 c-84 -123 -152 -231 -151 -240 2 -8 13 -16 25 -18
17 -3 42 27 139 170 840 1233 1460 1933 1808 2042 132 42 223 5 282 -112 78
-156 100 -488 58 -899 l-7 -63 -35 0 -35 0 7 58 c50 443 27 717 -71 831 -44
52 -85 71 -153 71 -184 0 -483 -241 -886 -715 -293 -345 -960 -1243 -952
-1283 2 -9 13 -18 24 -20 17 -2 40 23 115 130 481 686 984 1309 1264 1564 288
262 467 328 552 201 72 -108 90 -355 52 -721 l-12 -119 -81 7 c-178 14 -442
74 -690 157 -117 40 -151 48 -157 37 -12 -18 -4 -23 91 -58 140 -51 375 -116
530 -144 80 -15 163 -31 185 -35 32 -6 13 -9 -90 -16 -170 -10 -487 0 -650 21
-71 10 -143 18 -159 18 -35 1 -45 -18 -18 -33 38 -20 401 -112 582 -147 102
-20 196 -39 210 -42 40 -8 -125 -30 -305 -40 -150 -9 -432 -1 -475 13 -24 8
-40 -23 -19 -36 49 -30 912 -222 1124 -250 50 -7 96 -15 103 -19 20 -10 -204
-29 -494 -41 -179 -8 -322 -8 -490 0 -255 11 -281 8 -234 -31 39 -32 254 -133
360 -168 52 -17 140 -39 194 -48 l99 -18 -39 -11 c-202 -60 -602 -49 -1036 28
-145 26 -180 28 -185 12 -7 -19 25 -28 192 -57 266 -45 425 -60 655 -60 227 0
333 13 444 55 54 20 100 54 92 68 -3 4 -54 11 -113 14 -161 9 -351 64 -511
147 l-57 29 250 -5 c138 -3 323 -1 413 3 153 8 162 7 162 -10 0 -27 -93 -459
-154 -717 -29 -124 -51 -230 -49 -237 6 -16 27 -23 43 -13 14 8 86 307 175
725 31 142 57 260 58 261 10 7 77 13 77 7 0 -42 -114 -578 -196 -922 -53 -222
-55 -235 -38 -248 12 -9 21 -10 30 -2 20 17 164 628 235 1003 l34 176 30 4
c16 3 95 14 174 25 133 19 168 31 155 53 -3 4 -32 8 -64 8 -58 0 -262 19 -268
25 -2 2 11 109 30 238 l33 235 45 13 c61 19 62 45 1 41 l-43 -3 6 43 c14 104
27 413 21 518 -23 408 -121 581 -329 580 -50 -1 -90 -8 -132 -25z m361 -1232
c-15 -107 -56 -379 -59 -389 -4 -11 -76 -7 -76 5 1 27 69 411 74 420 4 6 21
11 37 11 l30 0 -6 -47z m-140 -30 c-4 -32 -12 -61 -19 -66 -26 -17 -285 18
-521 70 -88 19 -161 36 -162 37 -1 1 110 0 245 -2 136 -1 283 1 327 6 44 5 93
10 109 11 l28 1 -7 -57z m-20 -135 c-2 -13 -12 -65 -21 -115 -11 -67 -20 -93
-30 -93 -23 0 -427 87 -554 119 -100 25 -109 29 -70 30 201 6 496 39 620 70
56 14 61 13 55 -11z m-5847 -700 c-42 -60 -150 -167 -217 -217 -203 -150 -419
-219 -761 -243 -23 -2 -35 -8 -35 -18 0 -45 418 -9 696 61 227 56 457 154 617
261 45 31 82 52 82 47 0 -21 -300 -310 -392 -378 -323 -241 -637 -360 -999
-378 l-127 -6 -11 51 c-12 58 -61 388 -61 415 0 13 9 17 43 17 77 0 299 30
416 56 272 61 517 172 706 319 32 25 60 45 62 45 3 0 -6 -14 -19 -32z m-1254
-525 c10 -76 25 -182 35 -235 17 -93 17 -98 0 -98 -10 0 -20 4 -23 8 -5 9 -52
310 -62 400 -6 57 -5 62 13 62 17 0 21 -14 37 -137z"/>
<path d="M10458 13528 c-3 -7 8 -40 22 -73 34 -75 60 -176 67 -266 6 -71 22
-100 40 -77 23 28 -22 262 -70 371 -24 54 -50 73 -59 45z"/>
<path d="M4075 12575 c-187 -82 -279 -181 -321 -350 -13 -49 -14 -69 -5 -78
17 -17 27 0 46 73 9 35 24 78 32 95 45 87 144 171 265 222 79 33 94 45 76 61
-11 8 -33 3 -93 -23z"/>
<path d="M8884 11666 c-13 -33 3 -44 78 -51 328 -31 514 -72 798 -180 35 -13
67 -16 141 -13 l97 5 30 -66 c41 -86 88 -143 116 -139 33 5 31 34 -6 77 -18
22 -47 72 -64 113 l-31 73 -114 -3 c-111 -3 -117 -2 -209 33 -219 85 -461 137
-747 161 -71 6 -84 4 -89 -10z"/>
<path d="M7937 11134 c-16 -17 -1 -46 102 -203 182 -277 264 -441 325 -652 25
-88 71 -337 63 -345 -4 -4 -91 -20 -332 -59 l-30 -5 -1 88 c-2 156 -64 415
-151 627 -77 189 -212 405 -253 405 -38 0 -32 -28 23 -107 171 -245 298 -605
323 -914 4 -46 10 -89 15 -95 6 -7 -110 -28 -374 -68 -904 -138 -1002 -159
-1378 -304 -154 -59 -373 -209 -461 -315 -96 -115 -159 -250 -192 -407 -8 -40
-18 -76 -23 -80 -4 -4 -60 -19 -123 -34 -147 -34 -197 -56 -206 -91 -9 -35 12
-160 34 -205 15 -30 22 -35 57 -38 22 -2 84 6 138 16 53 10 97 16 97 13 0 -24
94 -532 110 -593 54 -209 133 -359 259 -492 193 -203 469 -288 826 -257 316
28 558 101 737 222 264 179 462 537 557 1007 16 81 31 158 33 172 3 22 7 19
42 -35 75 -115 218 -371 286 -510 126 -260 172 -399 174 -530 1 -78 2 -80 25
-80 36 0 46 49 32 150 -33 220 -195 568 -477 1021 l-63 101 24 79 c13 43 31
104 39 134 23 81 70 155 126 199 44 35 61 41 170 61 l120 23 62 -31 c148 -73
219 -156 346 -407 71 -139 72 -143 107 -330 83 -436 176 -717 257 -778 49 -36
82 8 37 49 -47 43 -113 206 -164 409 -24 99 -75 339 -75 357 0 5 27 -26 59
-69 176 -234 400 -404 606 -459 81 -22 266 -29 351 -15 99 18 424 156 552 236
l43 27 -54 -109 c-50 -99 -127 -289 -127 -312 0 -5 17 0 39 12 32 18 42 30 56
77 30 95 199 431 249 494 58 74 108 176 136 279 12 42 50 148 85 235 34 87 73
194 86 237 40 138 28 280 -41 479 -22 64 -22 63 12 80 29 14 34 58 18 140 -20
102 -24 106 -96 106 l-62 0 -81 163 c-89 179 -221 415 -325 581 -78 123 -92
158 -82 210 9 49 46 89 108 117 48 21 71 24 232 27 102 2 182 0 187 -5 6 -6
-14 -26 -53 -53 -125 -88 -193 -165 -212 -242 -11 -48 7 -55 135 -45 157 12
419 -2 419 -22 0 -4 -60 -26 -132 -50 -73 -24 -166 -58 -206 -77 -63 -29 -73
-37 -70 -56 3 -21 16 -25 159 -54 182 -36 323 -81 429 -134 136 -69 138 -68
-71 -67 -160 1 -192 -2 -245 -20 -78 -26 -128 -63 -153 -117 -26 -53 -27 -82
-2 -95 23 -13 33 -2 51 52 15 48 72 91 140 107 57 14 182 17 352 10 102 -4
119 -3 134 12 28 27 4 62 -78 115 -126 82 -321 154 -522 193 -42 9 -55 15 -45
21 8 5 77 29 154 54 156 50 205 75 205 104 0 65 -155 97 -423 88 -129 -5 -166
-3 -161 6 27 46 68 84 158 151 107 79 134 113 116 146 -14 26 -59 38 -175 45
-249 16 -422 -39 -474 -150 -40 -85 -26 -151 62 -285 125 -192 410 -721 396
-735 -3 -2 -19 -8 -37 -11 -30 -6 -32 -4 -66 65 -94 190 -210 292 -400 350
-166 51 -374 64 -561 36 -55 -9 -125 -18 -155 -21 -127 -12 -348 -48 -1020
-163 -157 -27 -286 -49 -287 -48 0 1 -11 58 -22 127 -55 325 -149 545 -379
890 -108 161 -136 193 -155 174z m2428 -989 c273 -44 421 -145 521 -354 l49
-101 40 5 c129 17 207 24 219 19 15 -6 32 -57 41 -132 l7 -52 -35 -15 c-19 -8
-67 -20 -105 -26 -39 -6 -75 -15 -82 -19 -8 -5 -1 -46 24 -146 53 -210 66
-301 66 -458 0 -351 -65 -557 -230 -727 -83 -85 -175 -144 -348 -223 -259
-119 -321 -136 -487 -136 -437 0 -830 376 -1114 1068 -26 64 -56 141 -65 170
-17 51 -17 54 0 66 17 13 22 2 76 -138 244 -631 562 -1000 947 -1097 123 -31
271 -24 396 18 125 43 364 154 444 207 83 56 177 153 223 232 78 134 107 255
115 490 7 208 -1 269 -72 549 -137 543 -261 690 -635 750 -221 35 -447 9 -860
-100 -69 -18 -156 -40 -195 -49 -38 -9 -108 -35 -155 -57 -156 -77 -304 -252
-326 -386 -5 -30 -12 -43 -27 -47 -12 -3 -23 -3 -25 -1 -10 10 23 123 55 188
45 89 178 227 270 278 111 62 76 64 -222 8 -348 -64 -861 -149 -1140 -189
-121 -17 -226 -33 -232 -35 -7 -2 -10 -11 -7 -18 3 -9 28 -17 65 -21 82 -8
228 -58 293 -100 72 -46 128 -106 166 -178 18 -33 30 -61 28 -62 -1 -2 -12 -6
-23 -10 -17 -5 -23 2 -39 42 -26 61 -115 151 -186 185 -132 64 -338 93 -609
84 -244 -7 -410 -39 -691 -134 -248 -83 -375 -147 -515 -258 -215 -170 -314
-409 -315 -755 0 -103 79 -582 120 -730 71 -253 229 -459 425 -556 153 -75
218 -88 445 -87 211 0 338 17 515 68 372 106 610 363 760 820 76 228 127 530
141 826 5 118 7 126 25 122 17 -5 19 -16 19 -129 0 -279 -78 -694 -177 -949
-164 -417 -405 -650 -776 -749 -300 -81 -604 -94 -818 -35 -307 84 -528 330
-619 688 -21 85 -110 577 -110 611 0 25 13 25 -173 -5 -121 -20 -118 -21 -137
45 -5 19 -13 63 -16 96 l-7 62 54 20 c30 11 106 32 170 47 l115 27 17 89 c36
188 117 340 249 465 142 135 295 219 558 309 299 102 280 98 1330 261 233 36
695 112 1025 169 705 122 804 138 1030 165 94 12 175 23 180 25 27 10 271 3
350 -10z m84 -94 c244 -61 364 -187 459 -481 36 -111 94 -332 117 -443 19 -95
22 -417 5 -527 -15 -95 -57 -212 -101 -285 -40 -67 -128 -159 -194 -205 -56
-39 -203 -112 -335 -168 -177 -74 -191 -77 -345 -77 -125 1 -149 4 -220 28
-124 41 -244 118 -362 231 -57 54 -103 102 -103 107 0 4 10 9 21 11 12 2 31
15 41 29 19 25 19 26 -15 120 l-33 94 130 1 c121 1 139 3 228 33 317 108 522
356 536 651 3 67 -1 116 -12 165 -21 87 -82 216 -135 282 -37 48 -44 51 -105
62 -372 65 -614 -116 -696 -520 -31 -150 -28 -429 6 -554 3 -11 -18 21 -47 70
-54 94 -106 168 -171 246 l-38 46 -15 144 c-21 214 -36 530 -29 610 l7 69 59
39 c68 46 147 78 238 96 36 7 115 27 175 44 125 35 309 76 435 96 124 21 389
13 499 -14z m-1430 -146 c-143 -105 -246 -262 -267 -408 l-7 -51 -315 -58
c-173 -32 -324 -57 -335 -57 -15 0 -29 18 -52 67 -63 131 -184 223 -358 273
-33 9 -53 19 -45 22 8 3 83 15 165 27 83 12 258 39 389 60 131 22 242 37 246
35 4 -2 10 -37 14 -76 7 -82 10 -89 37 -89 28 0 32 18 22 104 -5 42 -9 76 -9
77 3 2 515 97 530 98 15 1 11 -5 -15 -24z m-16 -712 l13 -143 -46 45 -45 45
-19 120 c-15 99 -23 127 -43 151 l-26 30 17 66 c17 69 47 129 93 184 l28 33 8
-195 c4 -106 13 -258 20 -336z m1048 421 c8 -2 26 -19 39 -36 l23 -32 -32 23
c-18 13 -54 32 -79 43 l-47 19 40 -6 c22 -3 47 -8 56 -11z m-2768 -21 c-16 -6
-17 -39 -2 -48 6 -4 73 -79 149 -166 77 -88 143 -158 147 -157 4 2 8 15 9 29
2 27 -90 144 -224 288 l-60 64 111 -7 c240 -14 404 -70 491 -167 51 -56 86
-139 91 -214 5 -71 26 -197 36 -216 5 -11 -3 -42 -25 -95 -19 -43 -37 -88 -40
-99 -7 -19 -9 -18 -28 8 -11 15 -24 24 -29 21 -6 -3 -5 -12 3 -22 10 -12 10
-14 1 -8 -18 10 -16 -17 3 -51 16 -27 15 -32 -19 -133 -63 -186 -97 -386 -97
-575 0 -96 2 -105 22 -119 12 -9 30 -16 40 -16 16 0 16 -3 2 -37 -100 -242
-239 -425 -409 -538 -102 -68 -194 -106 -344 -144 -172 -43 -274 -55 -466 -55
-143 1 -183 4 -250 23 -278 76 -461 255 -558 548 -51 152 -129 589 -135 747
-6 184 -10 175 111 226 236 101 286 129 269 157 -5 9 -53 -7 -162 -53 -85 -36
-165 -70 -177 -74 -29 -12 -30 5 -7 94 45 179 165 342 337 457 118 79 181 110
341 169 236 87 459 143 646 163 54 6 237 6 223 0z m2719 -25 c90 -38 151 -127
189 -273 24 -90 24 -154 -1 -249 -45 -177 -170 -335 -325 -412 -75 -37 -83
-39 -171 -38 -84 1 -99 4 -159 33 -109 54 -152 143 -162 332 -8 158 30 324
102 439 29 48 74 100 86 100 4 0 10 -12 13 -27 16 -64 181 -263 217 -263 24 0
34 16 69 115 24 67 34 113 37 182 l6 93 26 -6 c14 -4 47 -15 73 -26z m1168
-193 c16 -53 37 -136 46 -185 18 -108 11 -162 -44 -325 l-37 -110 -7 175 c-5
155 -10 192 -43 325 -20 83 -39 160 -42 172 -4 19 0 23 33 28 33 6 48 9 61 14
1 1 16 -42 33 -94z m-2330 17 c18 -14 26 -37 36 -98 20 -120 18 -151 -8 -168
-23 -15 -703 -146 -756 -146 -44 0 -59 26 -77 133 -19 109 -15 143 18 158 22
10 699 135 743 138 12 0 32 -7 44 -17z m140 -347 c19 -26 65 -80 102 -122 37
-41 90 -109 118 -150 86 -124 220 -412 220 -473 0 -19 -27 -40 -52 -40 -8 0
-35 26 -62 57 l-48 58 43 8 c24 5 45 10 47 12 5 5 -253 389 -321 478 -38 50
-70 106 -88 155 -16 42 -29 78 -29 80 0 12 41 -25 70 -63z m-150 -5 c7 -17 11
-33 8 -35 -2 -2 -23 9 -47 25 -46 30 -45 31 15 39 6 0 17 -13 24 -29z m-50
-30 c57 -37 85 -66 100 -105 l11 -30 -33 31 c-38 36 -165 124 -179 124 -5 0
-9 5 -9 11 0 19 59 2 110 -31z m-523 -82 c-46 -57 -77 -119 -97 -198 l-17 -65
5 90 c2 50 10 101 17 115 21 40 84 100 106 100 18 0 17 -5 -14 -42z m-76 5
c-27 -47 -31 -49 -31 -15 0 26 4 32 20 32 17 0 19 -3 11 -17z m-136 -135 c-6
-121 -12 -181 -38 -338 -2 -9 -6 -20 -9 -25 -3 -6 -20 -71 -37 -145 -18 -74
-38 -147 -46 -162 -12 -24 -12 -28 0 -28 15 0 16 5 59 180 14 58 23 85 20 60
-6 -53 -55 -251 -81 -329 -20 -61 -43 -82 -70 -65 -16 10 -18 27 -16 146 4
211 52 447 121 600 16 34 35 81 41 103 18 57 53 145 58 145 2 0 1 -64 -2 -142z
m1135 -177 c116 -170 138 -207 125 -214 -9 -5 -22 -6 -29 -4 -27 11 -234 355
-265 442 l-11 30 20 -25 c11 -14 83 -117 160 -229z m-3100 203 c0 -8 -19 -13
-24 -6 -3 5 1 9 9 9 8 0 15 -2 15 -3z m3354 -172 c40 -43 113 -80 174 -89 44
-7 45 -8 17 -14 -16 -4 -72 -7 -122 -8 -88 -1 -93 0 -98 22 -19 84 -25 115
-24 137 0 24 0 24 11 5 6 -11 25 -35 42 -53z"/>
<path d="M6918 9094 c-5 -4 -8 -19 -8 -33 0 -20 -3 -22 -9 -11 -6 8 -7 19 -4
25 4 5 2 7 -2 2 -11 -10 -14 -48 -3 -41 4 3 8 -5 8 -18 0 -16 -3 -19 -9 -10
-7 11 -9 10 -14 -3 -4 -9 -3 -13 3 -10 6 3 10 1 10 -4 0 -6 -6 -11 -12 -11 -9
0 -8 -4 2 -10 12 -8 12 -10 1 -10 -8 0 -11 -7 -8 -20 3 -11 1 -20 -4 -20 -40
0 69 -248 118 -267 11 -4 24 3 39 22 39 49 105 171 129 242 20 56 28 68 45 66
34 -4 144 -80 197 -136 48 -50 50 -52 60 -30 7 15 7 25 -1 34 -8 9 -8 10 2 5
28 -16 9 16 -34 56 -109 103 -256 165 -434 183 -36 4 -68 3 -72 -1z"/>
<path d="M6646 8251 c-3 -4 -8 -22 -11 -40 -5 -32 -5 -33 72 -68 100 -46 187
-71 293 -83 103 -12 217 -3 224 17 3 8 1 11 -4 8 -6 -3 -7 1 -4 9 5 13 -3 16
-42 17 l-49 1 57 15 c31 8 59 22 63 30 8 23 4 24 -50 7 -71 -22 -249 -30 -316
-14 -70 17 -131 43 -185 80 -24 16 -46 25 -48 21z m11 -36 c0 -8 -4 -12 -9 -9
-5 3 -6 10 -3 15 9 13 12 11 12 -6z"/>
<path d="M5624 10956 c-321 -240 -613 -497 -769 -675 -51 -58 -87 -91 -100
-91 -30 0 -153 61 -239 119 -77 52 -103 61 -112 38 -2 -7 11 -69 30 -137 60
-221 72 -415 31 -502 -21 -42 -15 -68 15 -68 15 0 27 13 43 48 34 76 36 243 3
397 -13 66 -28 130 -32 143 -6 20 -1 19 62 -18 85 -50 164 -80 208 -80 28 0
43 10 92 62 33 34 91 96 129 136 146 155 434 400 718 611 75 56 137 108 137
115 0 13 -20 36 -31 36 -4 0 -87 -60 -185 -134z"/>
<path d="M2617 9200 c-112 -28 -222 -105 -360 -250 -92 -96 -95 -102 -125
-192 -16 -51 -35 -119 -42 -151 l-13 -57 -28 32 c-21 26 -31 31 -44 23 -33
-21 -247 -334 -300 -440 -43 -85 -64 -146 -95 -268 -22 -87 -40 -168 -40 -180
-1 -20 -2 -20 -15 5 -15 27 -47 44 -64 34 -11 -7 -160 -263 -204 -351 -79
-160 -111 -324 -102 -525 l6 -115 -20 35 c-10 19 -29 44 -40 54 -19 17 -23 18
-35 5 -22 -22 -143 -394 -165 -504 -42 -213 -38 -340 20 -630 17 -82 33 -159
36 -170 3 -11 -15 8 -39 43 -43 61 -71 83 -89 65 -12 -12 -29 -267 -29 -431 0
-154 14 -284 46 -432 32 -145 75 -253 181 -457 47 -90 81 -163 76 -163 -4 0
-19 9 -33 20 -31 24 -68 26 -77 3 -7 -19 55 -272 104 -423 42 -128 119 -280
187 -371 28 -37 97 -117 154 -177 56 -61 102 -113 102 -116 0 -3 -16 2 -36 10
-44 18 -88 15 -92 -7 -4 -23 136 -333 183 -404 83 -127 208 -231 405 -338 136
-73 138 -76 57 -77 -72 0 -92 -14 -70 -49 29 -47 266 -219 382 -278 133 -67
239 -94 428 -106 170 -12 172 -12 143 -29 -32 -18 -38 -39 -17 -56 35 -28 406
-100 652 -127 83 -9 169 -18 193 -21 l42 -5 0 -522 c0 -287 3 -654 7 -814 l6
-293 27 0 27 0 -1 948 c-1 694 2 991 12 1112 48 612 126 962 315 1425 172 421
241 690 336 1309 74 475 119 677 195 861 13 33 23 61 23 62 -1 1 -18 -2 -37
-6 -35 -7 -35 -7 -81 -145 -61 -181 -99 -359 -159 -756 -96 -623 -163 -887
-333 -1301 -71 -173 -129 -341 -172 -498 -19 -68 -36 -125 -37 -127 -7 -6
-189 39 -286 71 -120 40 -225 88 -335 151 -95 55 -112 53 -104 -14 l5 -47
-132 136 c-152 157 -223 245 -361 447 -109 160 -131 176 -151 113 -11 -33 -11
-32 -61 100 -91 240 -133 391 -218 782 -14 64 -21 80 -41 89 -17 8 -27 8 -39
-2 -19 -15 -19 -25 5 122 23 149 37 309 45 528 3 91 10 216 16 278 10 103 9
116 -7 133 -13 15 -25 18 -46 13 l-29 -6 40 79 c115 229 176 410 247 728 57
255 58 259 22 263 -15 2 -41 -4 -58 -13 l-32 -17 47 84 c158 282 257 525 321
792 l29 118 -23 18 c-22 18 -69 15 -103 -5 -7 -5 -2 9 11 31 247 398 296 523
307 784 11 275 -62 462 -211 537 -56 29 -146 38 -209 23z m192 -65 c80 -40
136 -125 168 -252 25 -102 22 -290 -6 -433 -26 -133 -64 -214 -246 -515 -122
-204 -124 -218 -20 -167 36 18 71 32 79 32 15 0 -41 -231 -95 -385 -38 -112
-152 -348 -253 -524 -42 -73 -76 -140 -76 -147 0 -22 24 -16 86 21 32 19 61
35 64 35 8 0 -28 -169 -79 -380 -48 -196 -91 -309 -202 -539 -49 -101 -89
-190 -89 -197 0 -23 25 -16 71 21 24 19 48 35 53 35 5 0 6 -30 3 -67 -4 -38
-11 -180 -17 -318 -12 -275 -27 -425 -65 -629 -14 -75 -25 -142 -25 -151 0
-30 30 -14 55 29 14 24 32 49 40 56 16 13 15 15 46 -130 64 -309 149 -592 246
-820 58 -136 70 -155 89 -139 8 6 14 26 15 43 1 77 11 71 108 -68 112 -163
236 -309 405 -476 113 -111 127 -123 141 -109 14 13 13 20 -1 62 -9 27 -14 50
-12 52 2 2 62 -24 133 -59 149 -74 287 -124 430 -156 55 -13 101 -24 103 -26
2 -1 -6 -49 -17 -106 -44 -218 -74 -489 -91 -808 -5 -107 -10 -206 -10 -219 0
-24 0 -24 -87 -17 -202 15 -447 54 -710 113 -31 7 -29 18 7 33 45 19 57 37 36
58 -14 14 -47 18 -209 24 -204 7 -251 15 -385 69 -103 41 -215 109 -329 199
l-94 75 61 5 c101 8 101 45 -1 108 -33 20 -110 66 -171 102 -128 74 -231 168
-296 270 -41 63 -168 337 -160 345 2 2 24 -3 49 -12 54 -20 79 -13 79 21 0 17
-35 63 -122 158 -66 73 -141 160 -166 193 -50 67 -119 201 -158 302 -25 69
-116 404 -110 410 1 2 21 -7 43 -19 46 -25 73 -19 73 17 0 14 -46 117 -103
228 -108 211 -143 306 -177 472 -32 157 -41 310 -30 527 5 106 10 200 10 208
0 8 18 -12 39 -44 43 -64 63 -81 87 -72 23 9 17 76 -21 261 -75 360 -60 555
73 930 l49 140 27 -53 c29 -57 48 -71 71 -52 12 10 15 45 15 189 0 179 8 254
37 346 25 82 83 204 140 299 30 49 63 106 74 128 11 21 23 38 28 38 5 0 18
-22 30 -49 39 -92 49 -81 84 100 45 232 97 372 195 524 78 123 193 275 203
270 5 -3 15 -27 22 -53 20 -67 42 -67 61 0 8 29 29 104 46 166 17 62 38 129
47 149 19 48 202 231 277 278 124 79 244 97 335 50z"/>
<path d="M10635 7594 c-26 -13 -36 -31 -72 -135 l-42 -120 27 16 c15 9 34 22
43 28 16 12 93 228 81 226 -4 0 -21 -7 -37 -15z"/>
<path d="M10546 7341 c-23 -16 -40 -49 -91 -183 -34 -89 -70 -181 -79 -202 -9
-22 -14 -41 -12 -43 2 -2 22 1 45 7 32 8 41 16 41 32 0 11 29 98 64 192 90
241 89 234 32 197z"/>
<path d="M9086 7244 c-131 -29 -280 -99 -454 -216 -58 -39 -73 -54 -70 -71 3
-20 11 -23 81 -30 227 -22 337 -126 448 -421 54 -146 117 -193 198 -151 42 21
60 70 72 192 32 336 72 444 212 583 37 37 67 72 67 78 0 19 -32 29 -132 41
-132 15 -338 13 -422 -5z m433 -59 c7 -4 -5 -25 -35 -58 -58 -65 -118 -182
-143 -284 -11 -43 -27 -149 -35 -237 -16 -162 -29 -206 -63 -206 -33 0 -63 45
-108 160 -54 139 -99 218 -163 283 -70 72 -155 117 -257 136 l-40 7 105 62
c111 66 227 116 325 138 62 14 391 14 414 -1z"/>
<path d="M10400 6906 l-45 -12 -75 -149 c-88 -176 -151 -273 -219 -341 -86
-86 -383 -257 -530 -306 -58 -19 -89 -22 -251 -23 -223 -1 -238 -5 -496 -116
-364 -157 -546 -198 -632 -143 -28 18 -52 12 -52 -14 0 -37 71 -72 148 -72
103 0 305 62 567 175 246 106 247 106 470 109 167 2 198 5 260 25 159 52 479
237 566 328 68 70 131 168 217 341 l76 153 48 -186 c83 -328 205 -707 357
-1105 l58 -155 -36 -7 c-20 -4 -659 -46 -1421 -93 -1961 -121 -2004 -124
-2113 -134 -85 -8 -105 -14 -148 -42 -56 -36 -90 -76 -115 -134 -16 -39 -25
-165 -39 -515 -16 -427 -46 -1105 -51 -1169 l-6 -74 -34 63 c-59 110 -131 168
-192 154 -67 -16 -117 -69 -277 -293 -125 -173 -171 -228 -182 -217 -4 4 -8
42 -8 84 1 92 29 191 87 305 66 133 46 137 -148 30 -136 -75 -337 -173 -383
-188 -23 -7 -22 -5 7 31 17 22 47 79 67 128 20 49 47 111 61 137 l24 49 -24
10 c-44 16 -141 -15 -451 -145 l-40 -17 41 43 c119 130 207 326 208 464 1 68
0 70 -24 70 -24 0 -25 -4 -31 -70 -14 -142 -105 -328 -217 -442 -32 -32 -97
-83 -145 -113 -76 -48 -87 -58 -85 -80 2 -14 10 -26 20 -28 10 -2 130 44 268
103 325 138 430 174 430 146 0 -14 -95 -152 -146 -213 -27 -31 -66 -77 -88
-102 -42 -50 -42 -76 -1 -76 42 0 195 64 391 163 172 88 183 92 164 63 -162
-246 -291 -536 -384 -863 -127 -450 -181 -815 -256 -1728 -17 -203 -39 -446
-50 -538 -11 -93 -20 -171 -20 -173 0 -2 13 -4 29 -4 24 0 29 5 35 31 11 56
45 408 76 784 59 721 109 1072 205 1460 45 183 106 376 164 520 35 87 140 303
150 309 3 2 6 -33 6 -77 0 -84 23 -156 52 -165 25 -7 135 114 250 276 140 197
199 262 240 262 63 0 142 -124 184 -290 l22 -85 -61 -1410 c-34 -776 -65
-1456 -68 -1512 -6 -100 -6 -103 14 -103 16 0 22 8 26 33 3 17 52 1132 110
2477 l106 2445 28 55 c31 62 84 104 152 120 46 11 7490 480 7610 480 46 0 78
-6 105 -20 48 -25 45 -25 45 3 0 23 -33 44 -96 62 -17 4 -3712 -222 -3909
-240 l-61 -5 -83 222 c-155 414 -298 868 -367 1166 -16 67 -31 122 -34 121 -3
-1 -25 -6 -50 -13z"/>
<path d="M5101 6254 c-41 -14 -80 -33 -88 -42 -116 -147 -309 -492 -275 -492
36 0 63 28 107 114 52 102 175 289 232 354 l38 44 245 -65 c525 -140 560 -148
593 -141 100 21 101 21 -348 140 -236 62 -430 113 -430 113 0 0 -33 -11 -74
-25z"/>
<path d="M5995 6026 l-40 -13 35 -11 c19 -6 100 -27 179 -47 143 -37 143 -37
183 -19 27 12 35 20 26 25 -23 13 -295 79 -320 78 -13 -1 -41 -7 -63 -13z"/>
<path d="M9516 5966 c-205 -298 -777 -492 -1324 -448 -181 15 -282 32 -448 77
l-128 36 -18 -23 c-9 -13 -14 -26 -10 -29 11 -9 217 -67 302 -84 540 -112
1149 -6 1503 261 116 87 218 211 204 248 -12 31 -43 16 -81 -38z"/>
<path d="M6370 5931 l-35 -19 40 -10 c131 -35 132 -35 164 -16 17 10 31 21 31
24 0 6 -136 41 -155 40 -5 -1 -26 -9 -45 -19z"/>
<path d="M6561 5887 c-41 -25 -37 -27 90 -57 92 -22 96 -22 123 -5 15 10 23
21 19 26 -4 4 -51 18 -103 31 l-95 24 -34 -19z"/>
<path d="M6790 5825 c-26 -28 -34 -24 96 -58 l91 -25 29 23 c23 18 26 25 14
29 -11 4 -201 56 -206 56 0 0 -11 -11 -24 -25z"/>
<path d="M7023 5766 c-33 -29 -41 -23 112 -65 l109 -31 23 22 c13 12 20 25 16
29 -5 5 -54 19 -110 33 -57 14 -107 27 -112 30 -5 4 -22 -5 -38 -18z m47 -21
c-7 -9 -15 -13 -18 -10 -3 2 1 11 8 20 7 9 15 13 18 10 3 -2 -1 -11 -8 -20z"/>
<path d="M7280 5695 c-20 -22 -21 -25 -6 -31 17 -6 58 34 49 48 -7 13 -19 9
-43 -17z"/>
<path d="M7324 5685 c-9 -14 -15 -27 -13 -29 2 -3 47 -16 99 -30 52 -14 109
-30 127 -35 28 -8 34 -6 48 16 9 13 15 26 13 28 -2 1 -54 17 -117 34 -62 18
-119 35 -127 38 -7 2 -20 -7 -30 -22z m156 -46 c-7 -11 -14 -18 -17 -15 -3 3
0 12 7 21 18 21 23 19 10 -6z"/>
<path d="M8718 4425 c-3 -3 -64 -14 -135 -25 -267 -39 -460 -138 -523 -267
-40 -82 -42 -90 -35 -123 15 -68 105 -141 223 -179 326 -105 818 27 933 251
23 45 25 127 5 167 -38 72 -141 135 -273 165 -69 15 -184 22 -195 11z m-108
-114 l0 -38 50 5 c36 3 57 0 75 -12 24 -16 25 -15 25 3 0 26 19 31 130 38 93
5 96 5 121 -21 32 -32 43 -78 29 -125 -20 -71 -61 -105 -143 -119 -39 -7 -42
-10 -48 -45 -8 -48 -10 -50 -61 -51 -43 -1 -43 -1 -46 37 l-3 37 -40 -6 c-29
-5 -39 -3 -40 7 0 8 0 49 1 92 l1 78 -28 -3 c-28 -3 -28 -4 -37 -95 -9 -99
-12 -103 -78 -103 -23 0 -28 4 -28 25 l0 25 -21 -21 c-25 -25 -80 -49 -112
-49 -32 0 -47 -18 -47 -56 0 -36 -13 -44 -67 -44 l-36 0 7 133 c9 171 15 214
32 221 7 3 55 8 104 12 83 6 94 5 119 -14 l28 -21 5 64 c3 34 9 68 12 74 4 6
27 11 52 11 l44 0 0 -39z"/>
<path d="M8549 4333 c-26 -4 -26 -4 -32 -125 -11 -201 -12 -198 22 -198 34 0
41 23 41 125 l0 63 40 7 c59 10 63 4 57 -91 -5 -81 -4 -84 17 -84 40 0 47 14
53 106 7 116 -2 128 -94 122 l-63 -4 0 43 c0 24 -3 42 -7 42 -5 -1 -20 -4 -34
-6z"/>
<path d="M8848 4288 l-67 -10 -5 -52 c-3 -28 -8 -100 -12 -159 l-6 -108 33 3
c32 3 34 5 37 45 l3 42 50 7 c94 12 155 79 145 158 -9 74 -54 93 -178 74z
m102 -69 c15 -28 3 -77 -23 -93 -12 -8 -37 -17 -54 -21 l-33 -7 0 65 c0 35 3
67 7 70 3 4 26 7 49 7 33 0 46 -5 54 -21z"/>
<path d="M8883 4223 c-17 -3 -22 -13 -25 -51 -3 -26 -3 -49 -2 -50 6 -9 73 21
78 34 11 29 6 62 -10 68 -9 3 -16 5 -17 5 -1 -1 -12 -4 -24 -6z"/>
<path d="M8320 4216 l-75 -11 -6 -90 c-4 -49 -7 -120 -8 -157 l-1 -68 29 0
c31 0 41 14 41 60 0 25 4 28 47 35 86 13 124 43 142 112 14 53 -5 107 -41 118
-43 12 -53 12 -128 1z m98 -88 c4 -51 -11 -75 -56 -88 -63 -17 -64 -17 -56 53
4 34 9 66 11 70 3 4 26 7 51 5 46 -3 47 -4 50 -40z"/>
<path d="M8326 4128 c-9 -35 -7 -78 3 -78 27 0 62 23 71 45 14 37 3 55 -35 55
-25 0 -34 -5 -39 -22z"/>
<path d="M14307 3501 c-238 -158 -440 -300 -450 -314 -40 -61 -38 -65 272
-531 159 -238 300 -441 312 -450 53 -37 85 -25 286 109 114 75 189 120 191
112 3 -12 -121 -2234 -132 -2364 -5 -62 -5 -63 19 -63 21 0 25 5 25 33 0 17
38 700 85 1516 77 1344 85 1514 83 1800 -1 174 -4 289 -8 256 -4 -33 -7 -52
-8 -42 -3 25 -116 192 -144 211 -12 9 -39 16 -60 16 -32 0 -96 -39 -471 -289z
m670 -123 c-3 -7 -5 -2 -5 12 0 14 2 19 5 13 2 -7 2 -19 0 -25z m-7 -177 c0
-41 -5 -62 -16 -71 -27 -23 -36 -48 -23 -71 9 -18 13 -19 21 -8 6 9 7 -13 3
-66 -3 -44 -8 -81 -10 -83 -11 -11 -87 23 -109 49 -41 49 -52 100 -32 151 9
24 24 52 34 64 19 23 113 93 125 94 4 0 7 -26 7 -59z m-235 -168 c14 -21 25
-41 25 -44 0 -4 -23 -22 -52 -40 -28 -19 -55 -37 -61 -40 -5 -4 46 -89 113
-189 l122 -183 -23 -18 c-47 -36 -89 -55 -97 -43 -4 6 -58 88 -121 182 l-113
171 -59 -39 c-32 -22 -62 -40 -67 -40 -10 0 -66 80 -60 85 19 16 355 235 360
235 4 0 19 -17 33 -37z m212 -175 c-3 -7 -5 -2 -5 12 0 14 2 19 5 13 2 -7 2
-19 0 -25z m-10 -180 c-3 -7 -5 -2 -5 12 0 14 2 19 5 13 2 -7 2 -19 0 -25z
m-10 -170 c-3 -7 -5 -2 -5 12 0 14 2 19 5 13 2 -7 2 -19 0 -25z"/>
<path d="M14992 3695 c0 -16 2 -22 5 -12 2 9 2 23 0 30 -3 6 -5 -1 -5 -18z"/>
<path d="M5958 3505 c-14 -23 -88 -198 -85 -201 5 -6 48 59 76 114 19 38 27
114 9 87z"/>
<path d="M12816 3035 l-270 -304 -30 18 c-17 10 -80 49 -140 85 -64 39 -119
66 -136 66 -21 0 -38 -13 -73 -53 -76 -89 -72 -97 78 -207 69 -50 125 -95 125
-99 0 -4 -43 -55 -95 -114 -102 -113 -118 -140 -103 -172 13 -28 111 -95 140
-95 17 0 62 35 148 115 l124 114 50 -37 c28 -20 175 -128 326 -239 151 -112
283 -203 292 -203 27 0 48 29 48 64 0 32 -30 319 -33 322 -1 1 -108 66 -237
144 -129 78 -236 143 -237 144 -1 1 55 55 125 121 70 65 161 151 203 191 l76
74 -18 167 c-10 93 -19 169 -19 170 0 1 -7 9 -16 17 -37 37 -51 25 -328 -289z"/>
<path d="M13818 1903 c11 -21 17 -43 15 -49 -2 -7 15 -28 39 -48 47 -41 44
-50 -22 -61 -19 -3 -40 -9 -46 -13 -6 -4 -25 -50 -43 -103 -29 -89 -31 -99
-20 -147 7 -29 10 -55 6 -58 -3 -3 -36 -7 -72 -9 -48 -2 -72 -8 -88 -22 -171
-150 -204 -185 -216 -223 -15 -51 -22 -55 -121 -65 -25 -3 -56 -8 -70 -11 -69
-17 -66 -18 -101 56 -31 64 -50 83 -63 62 -2 -4 -7 -63 -11 -132 -8 -136 0
-184 38 -240 53 -80 121 -93 387 -75 107 8 308 21 445 31 138 9 251 17 252 18
5 4 65 799 67 881 1 86 -2 106 -22 142 -12 24 -41 55 -64 70 -39 27 -49 28
-175 31 l-134 4 19 -39z"/>
<path d="M13559 1897 c-221 -80 -481 -357 -513 -548 -6 -35 -3 -40 59 -100 37
-35 72 -65 79 -67 8 -2 42 7 77 18 137 46 326 203 428 355 166 248 99 425
-130 342z"/>
<path d="M11240 1350 l0 -480 65 0 65 0 0 480 0 480 -65 0 -65 0 0 -480z"/>
<path d="M10800 1610 l0 -140 70 0 70 0 0 140 0 140 -70 0 -70 0 0 -140z"/>
<path d="M10582 1043 l3 -478 65 0 65 0 3 478 2 477 -70 0 -70 0 2 -477z"/>
<path d="M11020 1375 l0 -145 70 0 70 0 0 145 0 145 -70 0 -70 0 0 -145z"/>
<path d="M10800 1020 l0 -140 70 0 70 0 0 140 0 140 -70 0 -70 0 0 -140z"/>
<path d="M11020 1080 l0 -70 70 0 71 0 -3 68 -3 67 -67 3 -68 3 0 -71z"/>
<path d="M11020 785 l0 -145 70 0 70 0 0 145 0 145 -70 0 -70 0 0 -145z"/>
<path d="M10606 259 c-3 -8 -12 -57 -21 -109 -8 -52 -18 -107 -21 -123 -5 -25
-3 -27 24 -27 31 0 42 17 42 68 0 18 5 22 34 22 41 0 60 -20 54 -60 -4 -28 -3
-30 29 -30 31 0 33 2 33 34 0 19 -7 41 -15 49 -12 13 -12 17 5 32 22 20 34 66
25 95 -9 29 -55 49 -125 57 -46 4 -61 3 -64 -8z m125 -65 c13 -16 4 -50 -16
-58 -9 -3 -28 -3 -44 0 -28 6 -31 20 -16 70 4 14 61 6 76 -12z"/>
<path d="M10856 218 c-5 -13 -36 -200 -36 -212 0 -3 13 -6 29 -6 28 0 30 2 42
73 7 39 13 90 13 112 1 34 -2 40 -22 43 -12 2 -24 -3 -26 -10z"/>
<path d="M11023 202 c-9 -6 -43 -159 -43 -194 0 -5 13 -8 29 -8 28 0 29 2 40
68 6 37 14 79 17 94 4 19 0 29 -13 37 -11 5 -24 6 -30 3z"/>
<path d="M11126 182 c-2 -4 -9 -36 -15 -72 -6 -36 -14 -75 -16 -87 -5 -20 -1
-23 25 -23 33 0 31 -2 50 109 9 51 9 66 -2 72 -16 11 -35 11 -42 1z"/>
<path d="M11341 133 c-5 -10 -12 -44 -16 -75 -7 -57 -7 -58 17 -58 13 0 29 5
36 12 9 9 12 9 12 0 0 -8 28 -12 94 -12 89 0 94 1 100 23 13 48 7 85 -15 92
-24 8 -45 -9 -85 -66 -15 -21 -30 -39 -33 -39 -4 0 -15 25 -26 55 -10 32 -28
61 -41 70 -29 19 -31 19 -43 -2z"/>
<path d="M11697 45 c-9 -20 -17 -38 -17 -40 0 -3 27 -5 60 -5 l60 0 -6 28
c-11 49 -13 52 -47 52 -28 0 -36 -5 -50 -35z"/>
</g>
</svg>
